<?xml version="1.0" encoding="UTF-8"?>
<!DOCTYPE svg PUBLIC "-//W3C//DTD SVG 1.1//EN" "http://www.w3.org/Graphics/SVG/1.1/DTD/svg11.dtd">
<svg version="1.1" xmlns="http://www.w3.org/2000/svg" xmlns:xlink="http://www.w3.org/1999/xlink" x="0" y="0" width="352" height="54" viewBox="0, 0, 352, 54">
  <g id="Layer_3">
    <g>
      <path d="M11.201,0.5 L341.799,0.5 C347.709,0.5 352.5,8.154 352.5,17.595 L352.5,37.405 C352.5,46.846 347.709,54.5 341.799,54.5 L11.201,54.5 C5.291,54.5 0.5,46.846 0.5,37.405 L0.5,17.595 C0.5,8.154 5.291,0.5 11.201,0.5 z" fill="#000000"/>
      <path d="M11.201,0.5 L341.799,0.5 C347.709,0.5 352.5,8.154 352.5,17.595 L352.5,37.405 C352.5,46.846 347.709,54.5 341.799,54.5 L11.201,54.5 C5.291,54.5 0.5,46.846 0.5,37.405 L0.5,17.595 C0.5,8.154 5.291,0.5 11.201,0.5 z" fill-opacity="0" stroke="#FFFFFF" stroke-width="1.003"/>
    </g>
  </g>
  <g id="Layer_1"/>
  <g id="Layer_4">
    <path d="M28.154,5.103 C15.627,5.103 5.468,15.202 5.468,27.66 C5.468,37.626 11.969,46.081 20.982,49.064 C22.116,49.273 22.532,48.575 22.532,47.979 C22.532,47.441 22.511,45.664 22.502,43.779 C16.19,45.144 14.859,41.118 14.859,41.118 C13.827,38.511 12.34,37.817 12.34,37.817 C10.281,36.417 12.495,36.446 12.495,36.446 C14.773,36.605 15.972,38.771 15.972,38.771 C17.996,42.219 21.28,41.222 22.574,40.646 C22.778,39.188 23.366,38.193 24.014,37.629 C18.976,37.059 13.679,35.125 13.679,26.482 C13.679,24.019 14.565,22.007 16.016,20.427 C15.781,19.859 15.004,17.565 16.236,14.458 C16.236,14.458 18.141,13.852 22.476,16.77 C24.286,16.27 26.226,16.02 28.154,16.011 C30.082,16.02 32.024,16.27 33.837,16.77 C38.167,13.852 40.07,14.458 40.07,14.458 C41.305,17.565 40.528,19.859 40.293,20.427 C41.747,22.007 42.627,24.019 42.627,26.482 C42.627,35.146 37.32,37.053 32.268,37.611 C33.082,38.311 33.807,39.684 33.807,41.789 C33.807,44.807 33.781,47.236 33.781,47.979 C33.781,48.579 34.189,49.283 35.339,49.061 C44.348,46.075 50.84,37.623 50.84,27.66 C50.84,15.202 40.683,5.103 28.154,5.103" fill="#FFFFFE"/>
  </g>
  <g id="Layer_2">
    <path d="M68.289,5.103 L185.668,5.103 C192.135,5.103 197.378,10.476 197.378,17.103 L197.378,37.103 C197.378,43.731 192.135,49.103 185.668,49.103 L68.289,49.103 C61.822,49.103 56.578,43.731 56.578,37.103 L56.578,17.103 C56.578,10.476 61.822,5.103 68.289,5.103 z" fill="#FFFFFF"/>
    <path d="M217.135,4.876 L334.513,4.876 C340.981,4.876 346.224,10.248 346.224,16.876 L346.224,36.876 C346.224,43.503 340.981,48.876 334.513,48.876 L217.135,48.876 C210.667,48.876 205.424,43.503 205.424,36.876 L205.424,16.876 C205.424,10.248 210.667,4.876 217.135,4.876 z" fill="#FFFFFF"/>
    <path d="M237.155,13.595 C236.287,12.731 235.232,12.3 233.991,12.3 C232.751,12.3 231.696,12.731 230.828,13.595 C229.959,14.458 229.525,15.507 229.525,16.741 C229.525,17.542 229.726,18.287 230.129,18.973 C230.533,19.659 231.075,20.195 231.758,20.58 C231.758,21.382 231.692,22.088 231.561,22.697 C231.429,23.306 231.212,23.841 230.909,24.304 C230.606,24.767 230.293,25.16 229.967,25.484 C229.641,25.808 229.183,26.112 228.594,26.398 C228.005,26.683 227.458,26.922 226.954,27.115 C226.45,27.307 225.771,27.535 224.918,27.797 C223.367,28.275 222.173,28.714 221.336,29.116 L221.336,17.619 C222.018,17.234 222.561,16.698 222.964,16.012 C223.367,15.326 223.569,14.581 223.569,13.78 C223.569,12.546 223.135,11.497 222.266,10.634 C221.398,9.771 220.344,9.339 219.103,9.339 C217.862,9.339 216.807,9.77 215.939,10.634 C215.07,11.497 214.636,12.546 214.636,13.78 C214.636,14.581 214.838,15.326 215.241,16.012 C215.644,16.698 216.187,17.234 216.869,17.619 L216.869,36.587 C216.187,36.972 215.644,37.509 215.241,38.195 C214.838,38.881 214.636,39.625 214.636,40.427 C214.636,41.66 215.07,42.709 215.939,43.572 C216.807,44.436 217.862,44.868 219.103,44.868 C220.343,44.868 221.398,44.436 222.266,43.572 C223.135,42.709 223.569,41.66 223.569,40.427 C223.569,39.625 223.367,38.881 222.964,38.195 C222.561,37.509 222.018,36.972 221.336,36.587 L221.336,35.986 C221.336,34.922 221.658,34.151 222.301,33.673 C222.945,33.194 224.259,32.647 226.244,32.031 C228.338,31.367 229.913,30.742 230.967,30.156 C234.441,28.198 236.194,25.006 236.225,20.58 C236.908,20.195 237.45,19.659 237.853,18.973 C238.256,18.286 238.458,17.542 238.458,16.741 C238.458,15.507 238.024,14.458 237.155,13.595 z M220.685,42 C220.25,42.432 219.723,42.648 219.103,42.648 C218.482,42.648 217.955,42.432 217.521,42 C217.087,41.569 216.869,41.044 216.869,40.428 C216.869,39.811 217.087,39.286 217.521,38.854 C217.955,38.423 218.482,38.207 219.103,38.207 C219.723,38.207 220.25,38.423 220.685,38.854 C221.119,39.286 221.336,39.811 221.336,40.428 C221.336,41.044 221.119,41.569 220.685,42 z M220.685,15.353 C220.25,15.785 219.723,16 219.103,16 C218.482,16 217.955,15.785 217.521,15.353 C217.087,14.921 216.869,14.397 216.869,13.78 C216.869,13.163 217.087,12.639 217.521,12.207 C217.955,11.775 218.482,11.559 219.103,11.559 C219.723,11.559 220.25,11.775 220.685,12.207 C221.119,12.639 221.336,13.163 221.336,13.78 C221.336,14.397 221.119,14.921 220.685,15.353 z M235.573,18.314 C235.139,18.745 234.612,18.961 233.992,18.961 C233.371,18.961 232.844,18.745 232.41,18.314 C231.976,17.882 231.758,17.358 231.758,16.741 C231.758,16.124 231.976,15.6 232.41,15.168 C232.844,14.736 233.371,14.52 233.992,14.52 C234.612,14.52 235.139,14.736 235.573,15.168 C236.007,15.599 236.225,16.124 236.225,16.741 C236.225,17.358 236.008,17.882 235.573,18.314 z" fill="#000000" id="code-fork-symbol"/>
    <text transform="matrix(1, 0, 0, 1, 295.938, 26.876)">
      <tspan x="-48.636" y="12" font-family="HelveticaNeue" font-size="36.103" fill="#000000">(forks)</tspan>
    </text>
    <path d="M94.796,23.525 C94.796,23.03 94.419,22.723 93.666,22.603 L83.546,21.139 L79.01,12.019 C78.755,11.471 78.426,11.197 78.023,11.197 C77.62,11.197 77.29,11.471 77.035,12.019 L72.499,21.139 L62.378,22.603 C61.626,22.723 61.249,23.03 61.249,23.525 C61.249,23.806 61.417,24.126 61.753,24.487 L69.092,31.583 L67.358,41.606 C67.331,41.793 67.318,41.927 67.318,42.007 C67.318,42.288 67.388,42.525 67.529,42.719 C67.67,42.913 67.882,43.009 68.164,43.009 C68.406,43.009 68.675,42.93 68.971,42.769 L78.022,38.038 L87.075,42.769 C87.357,42.93 87.626,43.009 87.881,43.009 C88.15,43.009 88.355,42.913 88.496,42.719 C88.637,42.525 88.707,42.288 88.707,42.007 C88.707,41.833 88.7,41.7 88.687,41.606 L86.953,31.583 L94.271,24.487 C94.621,24.14 94.796,23.819 94.796,23.525 z" fill="#000000" id="star"/>
    <text transform="matrix(1, 0, 0, 1, 147.093, 27.103)">
      <tspan x="-47.3" y="12" font-family="HelveticaNeue" font-size="36.103" fill="#000000">(stars)</tspan>
    </text>
  </g>
</svg>
